# xmcd CD database file
#
# Track frame offsets:
#	150
#	27765
#	67607
#	99135
#	126820
#	164715
#	194522
#
# Disc length: 2899 seconds
#
# Revision: 0
# Processed by: cddbd v1.4PL0 Copyright (c) Steve Scherf et al.
# Submitted via: CDex 1.50Beta7
#
DISCID=520b5107
DTITLE=Larry Coryell - Toku Do
DYEAR=1988
DGENRE=Jazz
TTITLE0=Moment's notice
TTITLE1=Round midnight
TTITLE2=Toku Do
TTITLE3=November mood
TTITLE4=Just Friends
TTITLE5=My funny Valentine
TTITLE6=Sophisticated Lady
EXTD=YEAR: 1988
EXTT0=
EXTT1=
EXTT2=
EXTT3=
EXTT4=
EXTT5=
EXTT6=
PLAYORDER=
